<mxfile host="app.diagrams.net" agent="Mozilla/5.0 (Macintosh; Intel Mac OS X 10_15_7) AppleWebKit/537.36 (KHTML, like Gecko) Chrome/129.0.0.0 Safari/537.36" version="24.7.16">
  <diagram name="Page-1" id="2YBvvXClWsGukQMizWep">
    <mxGraphModel dx="867" dy="477" grid="1" gridSize="10" guides="1" tooltips="1" connect="1" arrows="1" fold="1" page="1" pageScale="1" pageWidth="850" pageHeight="1100" math="0" shadow="0">
      <root>
        <mxCell id="0" />
        <mxCell id="1" parent="0" />
        <mxCell id="aM9ryv3xv72pqoxQDRHE-1" value="用户" style="shape=umlLifeline;perimeter=lifelinePerimeter;whiteSpace=wrap;html=1;container=0;dropTarget=0;collapsible=0;recursiveResize=0;outlineConnect=0;portConstraint=eastwest;newEdgeStyle={&quot;edgeStyle&quot;:&quot;elbowEdgeStyle&quot;,&quot;elbow&quot;:&quot;vertical&quot;,&quot;curved&quot;:0,&quot;rounded&quot;:0};" parent="1" vertex="1">
          <mxGeometry x="40" y="40" width="100" height="370" as="geometry" />
        </mxCell>
        <mxCell id="aM9ryv3xv72pqoxQDRHE-2" value="" style="html=1;points=[];perimeter=orthogonalPerimeter;outlineConnect=0;targetShapes=umlLifeline;portConstraint=eastwest;newEdgeStyle={&quot;edgeStyle&quot;:&quot;elbowEdgeStyle&quot;,&quot;elbow&quot;:&quot;vertical&quot;,&quot;curved&quot;:0,&quot;rounded&quot;:0};" parent="aM9ryv3xv72pqoxQDRHE-1" vertex="1">
          <mxGeometry x="45" y="70" width="10" height="280" as="geometry" />
        </mxCell>
        <mxCell id="aM9ryv3xv72pqoxQDRHE-5" value="大都会" style="shape=umlLifeline;perimeter=lifelinePerimeter;whiteSpace=wrap;html=1;container=0;dropTarget=0;collapsible=0;recursiveResize=0;outlineConnect=0;portConstraint=eastwest;newEdgeStyle={&quot;edgeStyle&quot;:&quot;elbowEdgeStyle&quot;,&quot;elbow&quot;:&quot;vertical&quot;,&quot;curved&quot;:0,&quot;rounded&quot;:0};" parent="1" vertex="1">
          <mxGeometry x="220" y="40" width="100" height="370" as="geometry" />
        </mxCell>
        <mxCell id="aM9ryv3xv72pqoxQDRHE-6" value="" style="html=1;points=[];perimeter=orthogonalPerimeter;outlineConnect=0;targetShapes=umlLifeline;portConstraint=eastwest;newEdgeStyle={&quot;edgeStyle&quot;:&quot;elbowEdgeStyle&quot;,&quot;elbow&quot;:&quot;vertical&quot;,&quot;curved&quot;:0,&quot;rounded&quot;:0};" parent="aM9ryv3xv72pqoxQDRHE-5" vertex="1">
          <mxGeometry x="45" y="80" width="10" height="190" as="geometry" />
        </mxCell>
        <mxCell id="cOMAtf-sL-kSRUrS036l-16" value="" style="html=1;points=[];perimeter=orthogonalPerimeter;outlineConnect=0;targetShapes=umlLifeline;portConstraint=eastwest;newEdgeStyle={&quot;edgeStyle&quot;:&quot;elbowEdgeStyle&quot;,&quot;elbow&quot;:&quot;vertical&quot;,&quot;curved&quot;:0,&quot;rounded&quot;:0};" vertex="1" parent="aM9ryv3xv72pqoxQDRHE-5">
          <mxGeometry x="45" y="80" width="10" height="270" as="geometry" />
        </mxCell>
        <mxCell id="aM9ryv3xv72pqoxQDRHE-7" value="1.用户开通快付渠道" style="html=1;verticalAlign=bottom;endArrow=block;edgeStyle=elbowEdgeStyle;elbow=vertical;curved=0;rounded=0;" parent="1" source="aM9ryv3xv72pqoxQDRHE-2" target="aM9ryv3xv72pqoxQDRHE-6" edge="1">
          <mxGeometry relative="1" as="geometry">
            <mxPoint x="195" y="130" as="sourcePoint" />
            <Array as="points">
              <mxPoint x="180" y="120" />
            </Array>
          </mxGeometry>
        </mxCell>
        <mxCell id="cOMAtf-sL-kSRUrS036l-1" value="通驰h5" style="shape=umlLifeline;perimeter=lifelinePerimeter;whiteSpace=wrap;html=1;container=0;dropTarget=0;collapsible=0;recursiveResize=0;outlineConnect=0;portConstraint=eastwest;newEdgeStyle={&quot;edgeStyle&quot;:&quot;elbowEdgeStyle&quot;,&quot;elbow&quot;:&quot;vertical&quot;,&quot;curved&quot;:0,&quot;rounded&quot;:0};" vertex="1" parent="1">
          <mxGeometry x="390" y="40" width="100" height="370" as="geometry" />
        </mxCell>
        <mxCell id="cOMAtf-sL-kSRUrS036l-2" value="" style="html=1;points=[];perimeter=orthogonalPerimeter;outlineConnect=0;targetShapes=umlLifeline;portConstraint=eastwest;newEdgeStyle={&quot;edgeStyle&quot;:&quot;elbowEdgeStyle&quot;,&quot;elbow&quot;:&quot;vertical&quot;,&quot;curved&quot;:0,&quot;rounded&quot;:0};" vertex="1" parent="cOMAtf-sL-kSRUrS036l-1">
          <mxGeometry x="45" y="80" width="10" height="270" as="geometry" />
        </mxCell>
        <mxCell id="cOMAtf-sL-kSRUrS036l-4" value="通驰服务端" style="shape=umlLifeline;perimeter=lifelinePerimeter;whiteSpace=wrap;html=1;container=0;dropTarget=0;collapsible=0;recursiveResize=0;outlineConnect=0;portConstraint=eastwest;newEdgeStyle={&quot;edgeStyle&quot;:&quot;elbowEdgeStyle&quot;,&quot;elbow&quot;:&quot;vertical&quot;,&quot;curved&quot;:0,&quot;rounded&quot;:0};" vertex="1" parent="1">
          <mxGeometry x="560" y="40" width="100" height="510" as="geometry" />
        </mxCell>
        <mxCell id="cOMAtf-sL-kSRUrS036l-5" value="" style="html=1;points=[];perimeter=orthogonalPerimeter;outlineConnect=0;targetShapes=umlLifeline;portConstraint=eastwest;newEdgeStyle={&quot;edgeStyle&quot;:&quot;elbowEdgeStyle&quot;,&quot;elbow&quot;:&quot;vertical&quot;,&quot;curved&quot;:0,&quot;rounded&quot;:0};" vertex="1" parent="cOMAtf-sL-kSRUrS036l-4">
          <mxGeometry x="45" y="80" width="10" height="360" as="geometry" />
        </mxCell>
        <mxCell id="aM9ryv3xv72pqoxQDRHE-9" value="" style="html=1;verticalAlign=bottom;endArrow=block;edgeStyle=elbowEdgeStyle;elbow=vertical;curved=0;rounded=0;" parent="1" source="aM9ryv3xv72pqoxQDRHE-6" target="cOMAtf-sL-kSRUrS036l-4" edge="1">
          <mxGeometry relative="1" as="geometry">
            <mxPoint x="175" y="160" as="sourcePoint" />
            <Array as="points">
              <mxPoint x="280" y="160" />
            </Array>
            <mxPoint x="370" y="160" as="targetPoint" />
          </mxGeometry>
        </mxCell>
        <mxCell id="cOMAtf-sL-kSRUrS036l-6" value="2.用户开通快付渠道" style="text;html=1;align=center;verticalAlign=middle;whiteSpace=wrap;rounded=0;" vertex="1" parent="1">
          <mxGeometry x="460" y="120" width="110" height="30" as="geometry" />
        </mxCell>
        <mxCell id="cOMAtf-sL-kSRUrS036l-7" value="" style="html=1;verticalAlign=bottom;endArrow=none;edgeStyle=elbowEdgeStyle;elbow=vertical;curved=0;rounded=0;endFill=0;startArrow=classic;startFill=1;dashed=1;" edge="1" parent="1" target="cOMAtf-sL-kSRUrS036l-5">
          <mxGeometry relative="1" as="geometry">
            <mxPoint x="272.5" y="189.7" as="sourcePoint" />
            <Array as="points">
              <mxPoint x="610" y="190" />
            </Array>
            <mxPoint x="600" y="190" as="targetPoint" />
          </mxGeometry>
        </mxCell>
        <mxCell id="cOMAtf-sL-kSRUrS036l-8" value="3.换取用户信息" style="text;html=1;align=center;verticalAlign=middle;whiteSpace=wrap;rounded=0;" vertex="1" parent="1">
          <mxGeometry x="450" y="160" width="110" height="30" as="geometry" />
        </mxCell>
        <mxCell id="cOMAtf-sL-kSRUrS036l-9" value="" style="html=1;verticalAlign=bottom;endArrow=block;edgeStyle=elbowEdgeStyle;elbow=vertical;curved=0;rounded=0;" edge="1" parent="1">
          <mxGeometry relative="1" as="geometry">
            <mxPoint x="280" y="220" as="sourcePoint" />
            <Array as="points">
              <mxPoint x="275" y="220" />
            </Array>
            <mxPoint x="605" y="220" as="targetPoint" />
          </mxGeometry>
        </mxCell>
        <mxCell id="cOMAtf-sL-kSRUrS036l-10" value="4.返回用户信息" style="text;html=1;align=center;verticalAlign=middle;whiteSpace=wrap;rounded=0;" vertex="1" parent="1">
          <mxGeometry x="450" y="190" width="110" height="30" as="geometry" />
        </mxCell>
        <mxCell id="cOMAtf-sL-kSRUrS036l-11" value="" style="rounded=0;whiteSpace=wrap;html=1;" vertex="1" parent="1">
          <mxGeometry x="610" y="240" width="10" height="60" as="geometry" />
        </mxCell>
        <mxCell id="cOMAtf-sL-kSRUrS036l-13" value="" style="strokeWidth=2;html=1;shape=mxgraph.flowchart.annotation_1;align=left;pointerEvents=1;direction=west;" vertex="1" parent="1">
          <mxGeometry x="620" y="250" width="20" height="30" as="geometry" />
        </mxCell>
        <mxCell id="cOMAtf-sL-kSRUrS036l-15" value="5.查询支付渠道开通信息" style="text;html=1;align=center;verticalAlign=middle;whiteSpace=wrap;rounded=0;" vertex="1" parent="1">
          <mxGeometry x="650" y="250" width="60" height="30" as="geometry" />
        </mxCell>
        <mxCell id="cOMAtf-sL-kSRUrS036l-17" value="支付渠道" style="shape=umlLifeline;perimeter=lifelinePerimeter;whiteSpace=wrap;html=1;container=0;dropTarget=0;collapsible=0;recursiveResize=0;outlineConnect=0;portConstraint=eastwest;newEdgeStyle={&quot;edgeStyle&quot;:&quot;elbowEdgeStyle&quot;,&quot;elbow&quot;:&quot;vertical&quot;,&quot;curved&quot;:0,&quot;rounded&quot;:0};" vertex="1" parent="1">
          <mxGeometry x="720" y="40" width="100" height="500" as="geometry" />
        </mxCell>
        <mxCell id="cOMAtf-sL-kSRUrS036l-18" value="" style="html=1;points=[];perimeter=orthogonalPerimeter;outlineConnect=0;targetShapes=umlLifeline;portConstraint=eastwest;newEdgeStyle={&quot;edgeStyle&quot;:&quot;elbowEdgeStyle&quot;,&quot;elbow&quot;:&quot;vertical&quot;,&quot;curved&quot;:0,&quot;rounded&quot;:0};" vertex="1" parent="cOMAtf-sL-kSRUrS036l-17">
          <mxGeometry x="45" y="80" width="10" height="360" as="geometry" />
        </mxCell>
        <mxCell id="cOMAtf-sL-kSRUrS036l-19" value="" style="html=1;verticalAlign=bottom;endArrow=none;edgeStyle=elbowEdgeStyle;elbow=vertical;curved=0;rounded=0;startArrow=classic;startFill=1;endFill=0;dashed=1;" edge="1" parent="1" source="cOMAtf-sL-kSRUrS036l-2">
          <mxGeometry relative="1" as="geometry">
            <mxPoint x="450" y="310" as="sourcePoint" />
            <Array as="points" />
            <mxPoint x="605" y="310" as="targetPoint" />
          </mxGeometry>
        </mxCell>
        <mxCell id="cOMAtf-sL-kSRUrS036l-20" value="6.返回支付渠道列表" style="text;html=1;align=center;verticalAlign=middle;whiteSpace=wrap;rounded=0;" vertex="1" parent="1">
          <mxGeometry x="460" y="270" width="110" height="30" as="geometry" />
        </mxCell>
        <mxCell id="cOMAtf-sL-kSRUrS036l-22" value="" style="html=1;verticalAlign=bottom;endArrow=none;edgeStyle=elbowEdgeStyle;elbow=vertical;curved=0;rounded=0;endFill=0;startArrow=classic;startFill=1;dashed=1;" edge="1" parent="1" target="cOMAtf-sL-kSRUrS036l-2">
          <mxGeometry relative="1" as="geometry">
            <mxPoint x="93" y="340" as="sourcePoint" />
            <Array as="points">
              <mxPoint x="430.5" y="340.3" />
            </Array>
            <mxPoint x="425.5" y="340.3" as="targetPoint" />
          </mxGeometry>
        </mxCell>
        <mxCell id="cOMAtf-sL-kSRUrS036l-23" value="6.返回微信渠道列表" style="text;html=1;align=center;verticalAlign=middle;whiteSpace=wrap;rounded=0;" vertex="1" parent="1">
          <mxGeometry x="290" y="310" width="110" height="30" as="geometry" />
        </mxCell>
        <mxCell id="cOMAtf-sL-kSRUrS036l-24" value="7.用户跳转支付渠道签约" style="html=1;verticalAlign=bottom;endArrow=block;edgeStyle=elbowEdgeStyle;elbow=vertical;curved=0;rounded=0;" edge="1" parent="1" target="cOMAtf-sL-kSRUrS036l-18">
          <mxGeometry x="-0.2481" y="10" relative="1" as="geometry">
            <mxPoint x="100" y="380" as="sourcePoint" />
            <Array as="points">
              <mxPoint x="185" y="380" />
            </Array>
            <mxPoint x="270" y="380" as="targetPoint" />
            <mxPoint as="offset" />
          </mxGeometry>
        </mxCell>
        <mxCell id="cOMAtf-sL-kSRUrS036l-25" value="" style="html=1;verticalAlign=bottom;endArrow=none;edgeStyle=elbowEdgeStyle;elbow=vertical;curved=0;rounded=0;startArrow=classic;startFill=1;endFill=0;dashed=1;" edge="1" parent="1" source="cOMAtf-sL-kSRUrS036l-5" target="cOMAtf-sL-kSRUrS036l-18">
          <mxGeometry relative="1" as="geometry">
            <mxPoint x="620" y="420" as="sourcePoint" />
            <Array as="points">
              <mxPoint x="620" y="420" />
            </Array>
            <mxPoint x="750" y="420" as="targetPoint" />
          </mxGeometry>
        </mxCell>
        <mxCell id="cOMAtf-sL-kSRUrS036l-26" value="8.回调通知签约结果" style="text;html=1;align=center;verticalAlign=middle;whiteSpace=wrap;rounded=0;" vertex="1" parent="1">
          <mxGeometry x="650" y="390" width="60" height="30" as="geometry" />
        </mxCell>
        <mxCell id="cOMAtf-sL-kSRUrS036l-27" value="" style="rounded=0;whiteSpace=wrap;html=1;" vertex="1" parent="1">
          <mxGeometry x="610" y="440" width="10" height="30" as="geometry" />
        </mxCell>
        <mxCell id="cOMAtf-sL-kSRUrS036l-28" value="" style="strokeWidth=2;html=1;shape=mxgraph.flowchart.annotation_1;align=left;pointerEvents=1;direction=west;" vertex="1" parent="1">
          <mxGeometry x="620" y="445" width="20" height="20" as="geometry" />
        </mxCell>
        <mxCell id="cOMAtf-sL-kSRUrS036l-29" value="9.更新用户签约状态" style="text;html=1;align=center;verticalAlign=middle;whiteSpace=wrap;rounded=0;" vertex="1" parent="1">
          <mxGeometry x="650" y="445" width="60" height="30" as="geometry" />
        </mxCell>
      </root>
    </mxGraphModel>
  </diagram>
</mxfile>
